<?xml version="1.0" standalone="no"?>
<!DOCTYPE svg PUBLIC "-//W3C//DTD SVG 20010904//EN"
 "http://www.w3.org/TR/2001/REC-SVG-20010904/DTD/svg10.dtd">
<svg version="1.0" xmlns="http://www.w3.org/2000/svg"
 width="581.000000pt" height="146.000000pt" viewBox="0 0 581.000000 146.000000"
 preserveAspectRatio="xMidYMid meet">

<g transform="translate(0.000000,146.000000) scale(0.100000,-0.100000)"
fill="#000000" stroke="none">
<path d="M515 1433 c-4 -16 -10 -46 -16 -68 -5 -22 -16 -83 -24 -135 -9 -52
-25 -147 -36 -210 -12 -63 -30 -164 -40 -225 -11 -60 -28 -162 -39 -225 -66
-372 -66 -386 -28 -427 l21 -23 653 0 652 0 44 42 c47 47 41 26 93 334 7 45
18 106 24 135 11 53 24 128 61 344 11 61 28 162 40 225 11 63 25 138 30 165 4
28 9 60 9 73 l1 22 -720 0 -720 0 -5 -27z m523 -128 c30 -27 44 -52 66 -117
44 -135 57 -168 67 -168 5 0 9 5 9 11 0 12 61 102 73 107 4 2 7 8 7 14 0 25
77 119 131 160 47 36 184 38 231 3 34 -25 68 -96 68 -139 0 -42 -46 -143 -87
-191 -5 -5 -26 -38 -47 -72 -22 -35 -43 -63 -47 -63 -5 0 -9 -5 -9 -11 0 -12
-61 -102 -72 -107 -5 -2 -8 -8 -8 -13 0 -10 -62 -103 -72 -107 -5 -2 -8 -8 -8
-13 0 -5 -12 -27 -27 -48 -16 -21 -35 -49 -43 -62 -31 -48 -111 -120 -140
-126 -17 -3 -33 -10 -36 -14 -9 -15 -70 -10 -117 10 -51 22 -79 54 -101 114
-23 65 -134 418 -142 452 -4 17 -10 35 -14 40 -26 36 -39 181 -20 230 12 31
101 122 132 135 13 5 56 9 95 9 69 1 75 -1 111 -34z"/>
<path d="M1428 1270 c-20 -11 -53 -41 -72 -68 -20 -26 -40 -52 -46 -59 -5 -7
-10 -15 -10 -18 0 -9 -63 -99 -72 -103 -5 -2 -8 -8 -8 -13 0 -5 -28 -50 -62
-99 -35 -50 -67 -98 -73 -107 -35 -56 -109 -110 -163 -119 -23 -4 -42 -12 -42
-18 0 -6 14 -55 31 -109 25 -77 39 -104 66 -127 60 -53 151 -34 215 45 30 36
138 196 156 230 7 14 17 25 23 25 5 0 9 5 9 11 0 6 10 25 23 42 12 17 27 39
32 49 6 10 50 77 99 149 74 109 90 140 94 179 5 56 -8 84 -51 110 -41 25 -101
25 -149 0z"/>
<path d="M3022 1232 c-9 -7 -12 -72 -10 -293 l3 -284 35 0 35 0 3 284 c2 295
2 301 -38 301 -8 0 -21 -4 -28 -8z"/>
<path d="M2090 1208 c1 -13 38 -119 100 -288 18 -47 46 -126 64 -177 l31 -92
51 -1 50 0 16 48 c30 87 49 137 63 169 8 17 15 37 15 45 0 7 7 26 15 41 8 15
19 42 24 60 5 18 23 69 39 115 l30 83 -35 -3 c-41 -4 -37 4 -140 -285 -37
-106 -72 -192 -76 -190 -5 1 -24 45 -42 97 -17 52 -35 102 -38 110 -4 8 -13
35 -21 60 -22 68 -45 131 -63 173 -14 32 -20 37 -50 37 -18 0 -33 -1 -33 -2z"/>
<path d="M4046 988 c-10 -95 -21 -206 -25 -246 -5 -46 -13 -77 -22 -83 -10 -6
-2 -9 25 -9 34 0 37 2 25 16 -10 12 -10 32 -1 102 6 48 14 126 18 175 3 48 10
87 15 87 4 0 26 -39 49 -87 72 -151 105 -218 110 -223 3 -3 12 -20 20 -38 l15
-33 17 33 c9 18 37 76 61 128 25 52 59 125 76 163 18 37 36 67 41 67 5 0 11
-19 14 -42 7 -53 26 -290 26 -324 0 -21 4 -24 41 -24 36 0 39 2 25 15 -19 20
-20 26 -54 335 l-17 165 -42 -85 c-22 -47 -62 -130 -88 -185 -63 -136 -78
-165 -87 -165 -4 0 -55 97 -112 215 -58 118 -107 215 -109 215 -1 0 -11 -78
-21 -172z"/>
<path d="M4810 1153 l-105 -4 3 -221 c2 -130 -1 -232 -7 -249 l-10 -29 120 0
c114 0 119 1 119 21 0 19 -1 19 -16 5 -20 -20 -113 -21 -140 -2 -16 12 -20 29
-23 105 -1 51 0 103 3 117 7 25 9 26 64 22 31 -3 64 -8 73 -12 11 -5 18 -1 21
11 4 16 -3 18 -76 18 l-81 0 -3 103 -3 102 68 0 c71 0 86 -5 96 -30 3 -8 6 0
6 18 1 17 0 31 -1 30 -2 -1 -50 -4 -108 -5z"/>
<path d="M5048 1144 c16 -7 18 -464 1 -481 -12 -12 187 -27 241 -17 95 17 193
94 206 161 3 18 10 36 15 39 16 9 10 97 -10 151 -20 55 -61 101 -114 130 -26
15 -61 18 -192 20 -88 1 -154 0 -147 -3z m251 -14 c54 -15 121 -77 147 -137
24 -54 34 -166 15 -177 -4 -3 -11 -18 -14 -33 -7 -35 -40 -73 -92 -104 -34
-20 -53 -24 -123 -24 -125 0 -122 -7 -122 266 l0 219 78 0 c42 0 92 -4 111
-10z"/>
<path d="M3701 1070 c-99 -36 -136 -103 -130 -232 5 -89 29 -133 96 -169 56
-31 169 -33 231 -5 37 17 42 23 42 52 l0 33 -60 -25 c-122 -49 -210 -18 -240
87 -5 18 -8 35 -6 37 3 2 72 3 155 3 l151 -2 0 63 c0 50 -5 69 -25 99 -45 65
-132 89 -214 59z m102 -51 c39 -11 77 -56 77 -91 0 -16 -12 -18 -118 -18 -65
0 -121 3 -125 6 -8 8 28 80 44 90 10 6 48 17 79 23 3 0 22 -4 43 -10z"/>
<path d="M2653 1069 c-28 -8 -33 -14 -33 -40 0 -28 3 -31 23 -24 12 3 57 9 99
12 72 5 78 4 102 -20 14 -14 26 -35 26 -45 0 -17 -10 -21 -67 -26 -88 -9 -152
-30 -184 -60 -53 -49 -46 -152 13 -197 45 -33 137 -34 189 -1 45 27 49 27 49
2 0 -16 7 -20 30 -20 l30 0 0 178 0 178 -28 27 c-16 15 -44 32 -63 37 -42 12
-143 11 -186 -1z m217 -259 c0 -56 -1 -59 -37 -81 -54 -33 -133 -33 -162 0
-47 54 -13 113 74 130 62 13 108 18 118 13 4 -2 7 -29 7 -62z"/>
<path d="M3163 1055 c-3 -9 -4 -85 -1 -169 4 -143 6 -156 28 -190 15 -21 39
-41 59 -47 43 -15 115 -5 151 21 36 25 50 25 50 0 0 -16 7 -20 30 -20 l30 0 0
210 0 210 -30 0 -30 0 0 -153 c0 -174 1 -171 -82 -202 -59 -22 -93 -14 -118
28 -17 28 -20 51 -20 180 l0 147 -30 0 c-18 0 -33 -6 -37 -15z"/>
<path d="M3297 583 c-13 -13 -7 -31 13 -36 21 -5 45 16 35 33 -7 11 -38 14
-48 3z"/>
<path d="M3982 463 c3 -113 4 -118 25 -121 21 -3 22 1 25 65 l3 68 30 0 c30 0
30 -1 35 -65 4 -58 7 -65 28 -68 21 -3 22 0 22 65 0 37 -4 75 -9 82 -5 8 -31
17 -58 20 -44 6 -48 9 -53 36 -4 22 -11 31 -28 33 -23 3 -23 3 -20 -115z"/>
<path d="M2384 545 c-71 -31 -70 -161 1 -193 31 -15 85 -15 119 -2 23 8 26 15
26 60 l0 51 -47 -3 c-48 -3 -63 -20 -23 -26 13 -2 20 -11 20 -27 0 -41 -49
-42 -82 -1 -23 27 -22 65 1 95 16 21 24 23 70 19 38 -4 51 -2 51 8 0 33 -79
44 -136 19z"/>
<path d="M3793 553 c-9 -3 -13 -34 -13 -103 0 -80 3 -99 16 -104 27 -11 33 -7
36 26 3 29 7 33 38 39 64 10 80 25 80 74 0 39 -4 46 -30 60 -28 14 -101 19
-127 8z m102 -68 c0 -27 -3 -30 -30 -30 -21 0 -31 5 -33 18 -6 33 6 49 35 45
24 -3 28 -8 28 -33z"/>
<path d="M2582 487 c-27 -29 -29 -83 -4 -115 29 -37 142 -43 142 -7 0 10 -9
12 -34 8 -34 -5 -76 10 -76 27 0 6 10 10 21 10 45 0 99 23 99 42 0 56 -105 81
-148 35z m95 -24 c4 -11 -54 -29 -64 -19 -3 3 -3 12 1 21 7 19 57 17 63 -2z"/>
<path d="M2776 497 c-14 -10 -16 -25 -14 -82 3 -63 5 -70 25 -73 21 -3 22 1
25 65 3 63 5 68 27 71 32 5 41 -12 41 -80 0 -55 1 -58 25 -58 24 0 25 2 25 65
0 83 -18 105 -88 105 -27 0 -56 -6 -66 -13z"/>
<path d="M2982 494 c-22 -15 -29 -61 -16 -110 10 -38 90 -58 135 -33 26 14 14
31 -17 23 -32 -8 -74 3 -74 19 0 8 24 18 60 25 66 14 72 24 39 66 -16 21 -29
26 -63 26 -23 0 -52 -7 -64 -16z m93 -25 c9 -13 6 -15 -32 -24 -29 -6 -33 -4
-33 14 0 17 6 21 29 21 17 0 33 -5 36 -11z"/>
<path d="M3177 503 c-15 -4 -17 -15 -15 -81 3 -71 5 -77 25 -80 21 -3 22 1 25
64 3 62 5 69 26 74 13 3 24 10 25 15 2 11 -56 16 -86 8z"/>
<path d="M3290 431 c0 -78 6 -91 41 -91 5 0 9 38 9 85 0 84 0 85 -25 85 -25 0
-25 -1 -25 -79z"/>
<path d="M3402 485 c-12 -15 -24 -35 -27 -45 -9 -27 21 -79 52 -91 37 -14 88
-8 88 11 0 10 -8 14 -23 12 -31 -5 -62 24 -62 58 0 35 17 50 58 50 52 0 34 24
-20 28 -39 3 -49 -1 -66 -23z"/>
<path d="M3557 492 c-9 -10 -17 -23 -17 -29 0 -16 43 -50 73 -57 40 -10 28
-31 -19 -32 -58 -2 -61 -3 -40 -19 28 -21 99 -19 119 3 31 35 13 69 -45 88
-43 14 -38 29 10 32 60 4 49 26 -14 30 -39 2 -54 -1 -67 -16z"/>
<path d="M4197 503 c-16 -15 -4 -22 40 -25 58 -4 68 -25 16 -33 -55 -9 -68
-18 -71 -54 -3 -26 1 -33 23 -41 34 -13 91 -13 116 0 15 9 19 22 19 63 0 76
-18 97 -84 97 -29 0 -56 -3 -59 -7z m93 -113 c0 -16 -7 -20 -30 -20 -23 0 -30
4 -30 20 0 16 7 20 30 20 23 0 30 -4 30 -20z"/>
<path d="M4396 497 c-14 -10 -16 -25 -14 -82 3 -63 5 -70 25 -73 21 -3 22 1
25 65 3 66 4 68 31 71 15 2 27 9 27 18 0 18 -69 19 -94 1z"/>
<path d="M4527 495 c-15 -11 -17 -25 -15 -81 3 -62 5 -69 25 -72 21 -3 22 1
25 65 3 65 4 68 28 68 24 0 25 -4 30 -65 4 -58 8 -65 27 -68 21 -3 22 1 25 65
3 65 4 68 28 68 24 0 25 -4 30 -65 4 -51 9 -66 23 -68 15 -3 17 5 17 71 0 47
-5 78 -12 85 -19 15 -209 13 -231 -3z"/>
<path d="M4827 503 c-16 -15 -4 -23 37 -23 29 0 46 -5 49 -14 5 -11 -5 -17
-39 -22 -29 -4 -50 -14 -59 -27 -19 -28 -19 -33 5 -57 22 -22 81 -27 124 -10
23 9 26 15 26 63 0 76 -18 97 -84 97 -29 0 -56 -3 -59 -7z m91 -110 c-4 -20
-45 -30 -60 -15 -16 16 1 32 33 32 24 0 30 -4 27 -17z"/>
<path d="M5022 487 c-28 -29 -29 -86 -3 -118 24 -30 113 -35 119 -6 3 15 -1
17 -23 11 -34 -8 -65 19 -65 57 0 32 23 49 65 49 45 0 22 25 -26 28 -36 2 -49
-2 -67 -21z"/>
<path d="M5160 496 c0 -8 4 -17 9 -20 5 -3 14 -29 21 -57 7 -28 19 -53 26 -56
19 -7 17 -20 -6 -43 -27 -27 -25 -40 8 -40 30 0 55 30 90 110 29 65 32 113 8
118 -23 5 -32 -10 -41 -65 -6 -44 -35 -63 -35 -24 0 11 -4 22 -9 25 -4 3 -11
19 -14 36 -5 24 -12 30 -32 30 -15 0 -25 -6 -25 -14z"/>
</g>
</svg>
