<?xml version="1.0" standalone="no"?>
<!DOCTYPE svg PUBLIC "-//W3C//DTD SVG 20010904//EN"
 "http://www.w3.org/TR/2001/REC-SVG-20010904/DTD/svg10.dtd">
<svg version="1.0" xmlns="http://www.w3.org/2000/svg"
 width="598.000000pt" height="328.000000pt" viewBox="0 0 598.000000 328.000000"
 preserveAspectRatio="xMidYMid meet">

<g transform="translate(0.000000,328.000000) scale(0.100000,-0.100000)"
fill="#000000" stroke="none">
<path d="M5915 3243 c-96 -593 -352 -1077 -815 -1544 -313 -315 -642 -547
-1075 -759 -110 -54 -254 -119 -320 -145 -1144 -453 -2453 -496 -3657 -121
l-48 15 0 -78 0 -78 178 -86 c199 -96 324 -148 519 -213 824 -275 1771 -306
2628 -84 203 52 320 90 515 167 509 201 937 478 1300 842 521 523 800 1129
836 1813 4 74 3 173 -1 221 -6 83 -8 87 -30 87 -20 0 -25 -6 -30 -37z"/>
<path d="M3043 2785 c-150 -33 -317 -129 -430 -249 -87 -91 -126 -161 -195
-346 l-53 -145 -5 80 c-12 177 -120 287 -310 315 -46 7 -94 8 -125 3 l-50 -8
-71 -190 c-39 -105 -70 -191 -69 -193 1 -1 26 4 56 11 119 31 183 -38 130
-141 -44 -87 -154 -139 -234 -113 -42 14 -62 55 -54 109 6 32 93 275 262 726
25 65 45 122 45 127 0 5 -87 9 -193 9 l-192 0 -125 -337 c-94 -255 -131 -343
-150 -360 -14 -11 -81 -66 -150 -121 -225 -179 -380 -348 -446 -487 -48 -100
-53 -149 -21 -218 61 -133 251 -200 607 -214 166 -6 174 -5 157 11 -9 10 -17
30 -17 44 0 15 -4 42 -9 60 -6 20 -6 30 0 27 5 -4 9 1 9 9 0 9 -4 16 -9 16
-10 0 -20 35 -27 90 -2 19 -7 49 -11 65 -7 32 -9 44 -11 87 -2 21 -13 33 -56
57 -73 42 -142 118 -156 172 -25 93 16 225 105 338 40 50 44 39 14 -39 -35
-90 -50 -200 -38 -267 13 -71 30 -103 80 -158 133 -144 437 -144 679 -1 41 25
101 65 132 90 51 41 75 67 155 172 l23 29 -20 -55 c-11 -30 -42 -113 -69 -185
-27 -71 -47 -133 -44 -137 2 -5 89 -8 193 -8 l188 0 29 78 c17 42 47 125 69
184 l39 108 65 0 65 0 2 -65 c4 -143 101 -262 245 -301 70 -18 216 -18 298 2
141 32 317 141 422 260 46 53 118 163 118 182 0 8 -56 9 -187 5 l-186 -6 -41
-40 c-50 -49 -91 -67 -151 -67 -38 0 -52 5 -76 29 -88 88 33 260 183 261 39 0
54 -6 82 -30 l34 -30 194 7 193 8 3 58 c5 98 -20 161 -91 232 -51 50 -74 65
-130 83 -210 68 -494 -14 -696 -202 -24 -23 -41 -33 -38 -23 6 15 -2 17 -79
17 -84 0 -85 0 -79 23 31 103 130 187 221 187 19 0 30 24 88 179 36 98 66 183
66 190 0 15 -79 13 -157 -4z"/>
<path d="M3666 1555 c-9 -26 -7 -32 5 -12 6 10 9 21 6 23 -2 3 -7 -2 -11 -11z"/>
<path d="M3895 1535 c-135 -29 -169 -35 -370 -64 -493 -72 -855 -100 -1319
-102 l-288 -1 7 -36 c4 -20 20 -77 37 -127 16 -49 31 -97 32 -105 4 -21 108
-17 331 15 475 66 1058 203 1465 344 185 64 210 74 210 83 0 11 -32 8 -105 -7z"/>
</g>
</svg>
